<?xml version="1.0" encoding="UTF-8" standalone="no"?>
<svg width="395px" height="87px" viewBox="0 0 395 87" version="1.1" xmlns="http://www.w3.org/2000/svg" xmlns:xlink="http://www.w3.org/1999/xlink">
    <!-- Generator: Sketch 3.8.3 (29802) - http://www.bohemiancoding.com/sketch -->
    <title>horizontal</title>
    <desc>Created with Sketch.</desc>
    <defs></defs>
    <g id="logos" stroke="none" stroke-width="1" fill="none" fill-rule="evenodd">
        <g id="horizontal" transform="translate(-53.000000, -207.000000)">
            <g transform="translate(53.000000, 207.000000)">
                <path d="M197.8,31.1 L195.5,31.1 C194.8,31.1 194.3,31.6 194.1,32.2 L188,66.8 C187.9,67.2 188,67.6 188.3,67.9 C188.6,68.2 188.9,68.4 189.4,68.4 L191.8,68.4 C192.5,68.4 193,67.9 193.2,67.3 L199.3,32.7 C199.4,32.3 199.3,31.9 199,31.6 C198.6,31.3 198.2,31.1 197.8,31.1" id="Fill-1" fill="#231815"></path>
                <path d="M200,12.2 C197.9,12.2 196,13.8 195.7,15.9 C195.5,16.9 195.8,17.9 196.4,18.7 C197,19.4 197.9,19.8 199,19.8 C201.1,19.8 203,18.2 203.3,16.1 C203.5,15.1 203.2,14.1 202.6,13.3 C202,12.6 201.1,12.2 200,12.2" id="Fill-3" fill="#000000"></path>
                <path d="M324.6,31.1 L322.3,31.1 C321.6,31.1 321.1,31.6 320.9,32.2 L317.2,53.2 C316.2,58.8 310.9,63.3 305.4,63.3 C302.9,63.3 300.8,62.4 299.4,60.7 C298,59 297.4,56.6 297.8,54.1 L301.6,32.7 C301.7,32.3 301.6,31.9 301.3,31.6 C301,31.3 300.7,31.1 300.2,31.1 L297.9,31.1 C297.2,31.1 296.7,31.6 296.5,32.2 L292.8,53.2 C292.1,57.2 293,61 295.5,63.9 C297.9,66.7 301.4,68.3 305.4,68.3 C313.3,68.3 320.8,61.9 322.2,54 L326,32.6 C326.1,32.2 326,31.8 325.7,31.5 C325.4,31.2 325,31.1 324.6,31.1" id="Fill-5" fill="#000000"></path>
                <path d="M161.5,31.1 C153.4,31.4 146,37.6 144.7,45.3 L140.9,66.9 C140.8,67.3 140.9,67.7 141.2,68 C141.5,68.3 141.8,68.5 142.2,68.5 L144.7,68.5 C145.3,68.5 145.9,68 146,67.4 L149.7,46.2 C150.6,40.8 155.7,36.5 161.2,36.2 C161.8,36.2 162.3,35.7 162.4,35.1 L162.8,32.6 C162.9,32.2 162.8,31.8 162.5,31.5 C162.3,31.2 161.9,31.1 161.5,31.1" id="Fill-7" fill="#000000"></path>
                <path d="M248.1,63.3 C244.6,63.3 241.6,62 239.6,59.6 C237.5,57.1 236.7,53.8 237.4,50.2 C238.8,42.5 246.1,36.2 253.9,36.2 C257.4,36.2 260.4,37.5 262.4,39.9 C264.5,42.4 265.3,45.7 264.6,49.3 C263.2,57 255.9,63.3 248.1,63.3 M253.8,31.1 C249,31.1 244.2,32.9 240.2,36.2 C239.6,36.7 238.9,36.6 238.4,36.4 C237.9,36.1 237.6,35.5 237.7,34.9 L238.1,32.8 C238.2,32.4 238.1,32 237.8,31.7 C237.5,31.4 237.1,31.2 236.7,31.2 L234.3,31.2 C233.6,31.2 233.1,31.7 232.9,32.3 L223.6,85.3 C223.5,85.7 223.6,86.1 223.9,86.4 C224.2,86.7 224.6,86.9 225,86.9 L227.3,86.9 C228,86.9 228.6,86.4 228.7,85.8 L232.6,63.6 C232.7,63 233.1,62.5 233.7,62.3 C234.2,62.2 234.9,62.3 235.5,62.9 C238.5,66.5 242.9,68.4 247.9,68.4 C258,68.4 267.6,60.2 269.4,50.2 C270.3,45.1 269.1,40.3 266.1,36.6 C263.3,33 258.8,31.1 253.8,31.1" id="Fill-9" fill="#000000"></path>
                <path d="M389,49.3 C387.6,57 380.3,63.3 372.5,63.3 C369,63.3 366,62 364,59.6 C361.9,57.1 361.1,53.8 361.8,50.2 C363.2,42.5 370.5,36.2 378.3,36.2 C381.8,36.2 384.8,37.5 386.8,39.9 C388.8,42.3 389.6,45.7 389,49.3 M390.6,36.6 C387.6,33 383.2,31.1 378.2,31.1 C373.4,31.1 368.6,32.9 364.6,36.2 C364,36.7 363.3,36.6 362.8,36.4 C362.3,36.1 362,35.5 362.1,34.9 L362.5,32.8 C362.6,32.4 362.5,32 362.2,31.7 C361.9,31.4 361.5,31.2 361.1,31.2 L358.7,31.2 C358,31.2 357.4,31.7 357.3,32.3 L348,85.3 C347.9,85.7 348,86.1 348.3,86.4 C348.6,86.7 349,86.9 349.4,86.9 L351.7,86.9 C352.4,86.9 353,86.4 353.1,85.8 L357,63.6 C357.1,63 357.5,62.5 358.1,62.3 C358.6,62.2 359.3,62.2 359.9,62.9 C362.9,66.5 367.3,68.4 372.3,68.4 C382.4,68.4 392,60.2 393.8,50.2 C394.9,45.1 393.7,40.2 390.6,36.6" id="Fill-11" fill="#000000"></path>
                <path d="M97.5,36.5 C101,36.5 104,37.8 106,40.2 C108.1,42.7 108.9,46 108.2,49.6 C106.8,57.3 99.5,63.6 91.7,63.6 C88.2,63.6 85.2,62.3 83.2,59.9 C81.1,57.4 80.3,54.1 81,50.5 C82.4,42.8 89.8,36.5 97.5,36.5 M120.5,12.9 L118.2,12.9 C117.5,12.9 117,13.4 116.8,14 L112.9,36.2 C112.8,36.9 112.3,37.4 111.7,37.5 C111.1,37.7 110.4,37.5 109.9,36.9 C106.9,33.3 102.5,31.4 97.5,31.4 C87.4,31.4 77.8,39.6 76,49.6 C75.1,54.7 76.3,59.5 79.3,63.2 C82.3,66.8 86.7,68.7 91.7,68.7 C96.4,68.7 101.2,66.9 105.2,63.7 C105.8,63.2 106.6,63.3 107,63.5 C107.6,63.8 107.8,64.4 107.7,65.1 L107.3,67.1 C107.2,67.5 107.3,67.9 107.6,68.2 C107.9,68.5 108.3,68.7 108.7,68.7 L111,68.7 C111.7,68.7 112.2,68.2 112.4,67.6 L121.8,14.5 C121.9,14.1 121.8,13.7 121.5,13.4 C121.3,13.1 120.9,12.9 120.5,12.9" id="Fill-13" fill="#000000"></path>
                <path d="M55.8,38.4 C54.4,35.7 52.7,33 51,30.4 C45.3,21.8 40,11.8 35.2,0.8 C35.1,0.5 34.7,0.3 34.4,0.3 L31.7,0.3 L30.8,0.3 L28.7,0.3 L26,0.3 L25.1,0.3 C24.7,0.3 24.4,0.5 24.3,0.8 C19.5,11.9 14.2,21.8 8.5,30.4 C6.2,33.9 4,37.5 2.4,41.2 C1.8,42.6 1.3,44 0.9,45.5 C0.8,46 0.7,46.4 0.6,46.9 C0.6,47.1 0.5,47.3 0.5,47.4 L0.5,47.6 C0.4,48.3 0.3,49.1 0.2,49.9 L0.2,50.5 L0.2,51.3 L0.2,51.7 C0.2,66.9 13.5,79.2 29.9,79.2 C46.3,79.2 59.6,66.9 59.6,51.7 C59.3,46.8 58,42.3 55.8,38.4 Z M47.8,58.1 C44.7,67.7 36,74 25.8,74 C15.6,73.9 6.9,67.7 3.8,58.1 C0.5,47.9 5.2,39.7 10.7,31.4 C15.8,23.7 20.6,15 25,5.4 C25.2,5 25.5,4.8 25.9,4.8 C26.3,4.8 26.6,5 26.8,5.4 C31.2,15 36,23.8 41.1,31.4 C46.5,39.7 51.1,48 47.8,58.1 Z" id="Combined-Shape" fill="#060000"></path>
            </g>
        </g>
    </g>
</svg>