<?xml version="1.0" encoding="UTF-8" standalone="no"?>
<svg width="244px" height="33px" viewBox="0 0 244 33" version="1.1" xmlns="http://www.w3.org/2000/svg" xmlns:xlink="http://www.w3.org/1999/xlink">
    <!-- Generator: Sketch 39.1 (31720) - http://www.bohemiancoding.com/sketch -->
    <title>horizontal</title>
    <desc>Created with Sketch.</desc>
    <defs></defs>
    <g id="logo" stroke="none" stroke-width="1" fill="none" fill-rule="evenodd">
        <g id="horizontal" transform="translate(-25.000000, -133.000000)" fill="#000000">
            <g transform="translate(25.000000, 133.000000)">
                <g id="typography" transform="translate(47.000000, 6.000000)">
                    <path d="M14.6320089,0.7782 C14.5963883,0.773857895 14.5607677,0.771252632 14.5251472,0.771252632 L1.28211525,0.771252632 C0.765182624,0.771252632 0.346423759,1.15162105 0.28647695,1.67441053 C0.282132979,1.70654211 0.28039539,1.73954211 0.28039539,1.77341053 L0.28039539,24.1899632 C0.28039539,24.7605158 0.711317376,25.1912526 1.28211525,25.1912526 L1.61573227,25.1912526 C2.18653014,25.1912526 2.61745213,24.7605158 2.61745213,24.1899632 L2.61745213,12.2196474 L8.3949344,12.2196474 C8.96660106,12.2196474 9.39665426,11.7897789 9.39665426,11.2183579 L9.39665426,10.9526211 C9.39665426,10.4315684 9.02915426,10.0234105 8.5017961,9.95741053 C8.46617553,9.95306842 8.43055496,9.95133158 8.3949344,9.95133158 L2.61745213,9.95133158 L2.61745213,3.10730526 L14.5251472,3.10730526 C15.095945,3.10730526 15.526867,2.67656842 15.526867,2.10514737 L15.526867,1.77341053 C15.526867,1.25235789 15.1584982,0.843331579 14.6320089,0.7782" id="Fill-1"></path>
                    <path d="M40.6742926,22.8627553 C40.6351968,22.8575447 40.5969699,22.8549395 40.5578741,22.8549395 L28.6493103,22.8549395 L28.6493103,1.77315 C28.6493103,1.25209737 28.2809415,0.843939474 27.7535833,0.777939474 C27.7179628,0.773597368 27.6823422,0.771860526 27.6467216,0.771860526 L27.3148422,0.771860526 C26.7935656,0.771860526 26.3852323,1.13920263 26.3200727,1.66633421 C26.3157287,1.70193947 26.3131223,1.73754474 26.3131223,1.77315 L26.3131223,24.1897026 C26.3131223,24.7611237 26.7440443,25.1918605 27.3148422,25.1918605 L40.5578741,25.1918605 C41.128672,25.1918605 41.559594,24.7611237 41.559594,24.1897026 L41.559594,23.8570974 C41.559594,23.3421237 41.1955691,22.9330974 40.6742926,22.8627553" id="Fill-3"></path>
                    <path d="M64.2326933,1.47363158 C64.090211,1.16621053 63.7826578,0.970815789 63.4446968,0.970815789 L63.2448741,0.970815789 C62.9069131,0.970815789 62.5984911,1.16707895 62.4568777,1.4745 C56.1407429,15.1260789 52.6125691,22.6248947 51.9731365,23.7651316 C51.9001578,23.8945263 51.8619309,24.0404211 51.8619309,24.1897895 C51.8619309,24.7603421 52.2928528,25.1919474 52.8636507,25.1919474 L53.2624273,25.1919474 C53.5760621,25.1919474 53.8662394,25.0217368 54.020016,24.7481842 C54.5187039,23.8597895 57.5646968,17.3978684 63.3230656,5.0055 C65.4733316,9.58989474 67.1205656,13.0948421 68.3924805,15.7930263 L62.2622677,15.7930263 C61.542906,15.7930263 60.9590762,16.3766053 60.9590762,17.0956579 C60.9590762,17.8147105 61.542906,18.3982895 62.2622677,18.3982895 L69.6209557,18.3982895 C72.5262039,24.5475789 72.6434911,24.7169211 72.7147323,24.8202632 C72.8771968,25.0521316 73.1430479,25.1919474 73.4271436,25.1919474 L73.8928174,25.1919474 C74.189945,25.1919474 74.4653528,25.0408421 74.625211,24.7907368 C74.7850691,24.5406316 74.8059202,24.2262632 74.6808138,23.9579211 L64.2326933,1.47363158 Z" id="Fill-5"></path>
                    <path d="M108.587963,0.970728947 C108.380322,0.970728947 108.178761,1.04541316 108.02151,1.18088684 C101.527272,6.76136053 99.0659776,8.89593947 98.1320237,9.71833421 C98.0851088,9.67317632 98.0329812,9.62107105 97.9730344,9.56115 C92.1599315,4.58683421 88.9080344,1.76012368 88.3076975,1.15917632 C88.1443641,0.995913158 87.9236904,0.904728947 87.6925911,0.904728947 C87.1756585,0.904728947 86.7673251,1.26946579 86.6978216,1.79138684 C86.6926088,1.82959737 86.6900024,1.86780789 86.6900024,1.90601842 L86.6900024,24.1897026 C86.6900024,24.7611237 87.1209244,25.1918605 87.6925911,25.1918605 L87.9584422,25.1918605 C88.52924,25.1918605 88.960162,24.7611237 88.960162,24.1897026 L88.960162,4.78743947 C93.2372365,8.44088684 96.0808003,10.9063342 97.4222188,12.1264658 C97.5820769,12.2723605 97.7905875,12.3522553 98.0069173,12.3522553 L98.1407117,12.3522553 C98.5281939,12.3522553 98.5473074,12.3522553 107.254364,4.80567632 L107.254364,24.1897026 C107.254364,24.7611237 107.684417,25.1918605 108.255215,25.1918605 L108.521935,25.1918605 C109.092733,25.1918605 109.523655,24.7611237 109.523655,24.1897026 L109.523655,1.83915 C109.523655,1.35891316 109.068407,0.970728947 108.587963,0.970728947" id="Fill-7"></path>
                    <path d="M126.796195,22.8551132 L126.796195,3.10721842 L132.382542,3.10721842 C132.579758,3.10721842 132.800432,3.13761316 133.038482,3.19666579 C135.248695,4.11632368 135.505858,5.40419211 135.505858,6.29606053 L135.505858,6.69553421 C135.505858,7.95735 134.786496,8.94648158 133.307808,9.71677105 C131.935982,9.93648158 131.247028,10.0710868 131.247028,10.8865342 L131.247028,11.2191395 C131.247028,11.7896921 131.67795,12.2195605 132.248748,12.2195605 L132.581496,12.2195605 C133.084528,12.2195605 133.724829,12.3949816 134.410308,12.7024026 C136.445893,13.8765079 137.436319,15.4370605 137.436319,17.4717711 C137.436319,17.6419816 137.416337,18.0015079 137.3199,18.74835 C136.450237,21.5116658 134.529333,22.8551132 131.449457,22.8551132 L126.796195,22.8551132 Z M135.69178,10.8457184 C137.061868,9.76713947 137.776886,8.28821842 137.776886,6.49579737 C137.776886,4.02513947 136.461532,2.18235 133.921177,1.14806053 L132.922932,0.815455263 C132.833446,0.786797368 132.741354,0.771165789 132.647524,0.771165789 L125.460858,0.771165789 C124.943925,0.771165789 124.525166,1.15153421 124.465219,1.67432368 C124.460876,1.70645526 124.460007,1.74032368 124.460007,1.77332368 L124.460007,24.1898763 C124.460007,24.7604289 124.89006,25.1911658 125.460858,25.1911658 L132.515468,25.1911658 C132.690095,25.1911658 132.853429,25.1460079 132.991567,25.0652447 C133.697028,24.9349816 134.304315,24.7821395 134.796922,24.6101921 C134.826461,24.6006395 134.855131,24.5884816 134.883801,24.5754553 C138.083571,23.0617974 139.70561,20.6710342 139.70561,17.4717711 C139.70561,15.9181658 139.203446,14.4279553 138.221709,13.0549816 C137.58662,12.13185 136.739546,11.3928237 135.69178,10.8457184 L135.69178,10.8457184 Z" id="Fill-9"></path>
                    <path d="M167.407388,22.8627553 C167.368293,22.8575447 167.330066,22.8549395 167.29097,22.8549395 L155.382406,22.8549395 L155.382406,12.2193868 L161.160757,12.2193868 C161.732424,12.2193868 162.163346,11.7895184 162.163346,11.2189658 L162.163346,10.9523605 C162.163346,10.4330447 161.794977,10.0240184 161.268488,9.95801842 C161.232867,9.95367632 161.196378,9.95107105 161.160757,9.95107105 L155.382406,9.95107105 L155.382406,3.10704474 L165.361378,3.10704474 C165.932176,3.10704474 166.363098,2.67630789 166.363098,2.10575526 L166.363098,1.77315 C166.363098,1.25209737 165.994729,0.843939474 165.468239,0.777939474 C165.432619,0.773597368 165.396998,0.771860526 165.361378,0.771860526 L154.047938,0.771860526 C153.526661,0.771860526 153.118328,1.13920263 153.053168,1.66633421 C153.048824,1.70193947 153.046218,1.73754474 153.046218,1.77315 L153.046218,24.1897026 C153.046218,24.7611237 153.47714,25.1918605 154.047938,25.1918605 L167.29097,25.1918605 C167.861768,25.1918605 168.29269,24.7611237 168.29269,24.1897026 L168.29269,23.8570974 C168.29269,23.3421237 167.928665,22.9330974 167.407388,22.8627553" id="Fill-11"></path>
                    <path d="M196.06483,23.7582711 C195.939723,23.5281395 194.859812,21.2450605 190.494989,11.8287711 C190.510628,11.8226921 190.526266,11.8166132 190.542773,11.8114026 C192.968447,10.7250079 194.249918,8.88742895 194.249918,6.49579737 C194.249918,4.02513947 192.935433,2.18321842 190.395947,1.14806053 L189.396833,0.815455263 C189.308216,0.786797368 189.215255,0.771165789 189.122294,0.771165789 L181.934759,0.771165789 C181.414351,0.771165789 181.005149,1.13937632 180.939989,1.66650789 C180.935645,1.70211316 180.933039,1.73771842 180.933039,1.77332368 L180.933039,24.1898763 C180.933039,24.7604289 181.363961,25.1911658 181.934759,25.1911658 L182.268376,25.1911658 C182.839174,25.1911658 183.269227,24.7604289 183.269227,24.1898763 L183.269227,3.10721842 L188.456798,3.10721842 C188.737418,3.10721842 189.06061,3.14195526 189.418553,3.21056053 C191.713039,4.06856053 191.980628,5.41895526 191.980628,6.36292895 L191.980628,6.69553421 C191.980628,7.72113947 191.476727,8.61561316 190.440255,9.42671842 C189.912897,9.71069211 189.228287,9.91303421 188.40467,10.0259289 C188.131869,10.0632711 187.89295,10.2282711 187.760894,10.4688237 C187.628837,10.7111132 187.618411,11.0002974 187.733961,11.2504026 C193.01623,22.6935868 193.90327,24.4556132 194.110043,24.7856132 C194.269032,25.0383237 194.547046,25.1911658 194.845911,25.1911658 L195.177791,25.1911658 C195.749457,25.1911658 196.180379,24.7604289 196.180379,24.1898763 C196.180379,24.04485 196.134333,23.8850605 196.06483,23.7582711" id="Fill-13"></path>
                </g>
                <g id="symbol">
                    <path d="M28.3902004,21.8386184 L22.566672,29.4763816 L16.7813706,21.6380132 L22.5110691,13.8725921 L28.3902004,21.8386184 Z M20.5345621,30.2171447 L10.4495975,30.2171447 L15.4920798,23.3844079 L20.5345621,30.2171447 Z M21.2226472,12.1261974 L8.41748759,29.4763816 L2.59395922,21.8386184 L15.4920798,4.36164474 L21.2226472,12.1261974 Z M15.4920798,0.868855263 L-0.000260638298,21.8585921 L7.95528901,32.2918026 L23.0288706,32.2918026 L30.9835514,21.8585921 L15.4920798,0.868855263 Z" id="Fill-16"></path>
                </g>
            </g>
        </g>
    </g>
</svg>