<?xml version="1.0" encoding="UTF-8" standalone="no"?>
<svg width="201px" height="156px" viewBox="0 0 201 156" version="1.1" xmlns="http://www.w3.org/2000/svg" xmlns:xlink="http://www.w3.org/1999/xlink">
    <!-- Generator: Sketch 39.1 (31720) - http://www.bohemiancoding.com/sketch -->
    <title>vertical</title>
    <desc>Created with Sketch.</desc>
    <defs></defs>
    <g id="logo" stroke="none" stroke-width="1" fill="none" fill-rule="evenodd">
        <g id="vertical" transform="translate(-50.000000, -65.000000)" fill="#000000">
            <g transform="translate(50.000000, 65.000000)">
                <g id="symbol" transform="translate(45.000000, 0.000000)">
                    <path d="M101.518248,74.7541443 L80.8994833,101.796383 L60.4160644,74.043882 L80.702616,46.5496582 L101.518248,74.7541443 Z M73.7046016,104.419127 L37.99781,104.419127 L55.8512058,80.2271614 L73.7046016,104.419127 Z M76.1408335,40.3663789 L30.8029284,101.796383 L10.1841633,74.7541443 L55.8512058,12.8752298 L76.1408335,40.3663789 Z M55.8512058,0.508671122 L0.999077185,74.8248631 L29.1664696,111.764653 L82.535942,111.764653 L110.700258,74.8248631 L55.8512058,0.508671122 Z" id="Fill-16"></path>
                </g>
                <g id="typography" transform="translate(0.000000, 129.000000)">
                    <path d="M14.9291055,0.808130769 C14.8927617,0.80362166 14.8564178,0.800916194 14.820074,0.800916194 L1.30814805,0.800916194 C0.780719327,0.800916194 0.353457744,1.19591417 0.292293741,1.73881093 C0.287861567,1.77217834 0.286088697,1.80644757 0.286088697,1.84161862 L0.286088697,25.1203464 C0.286088697,25.7128433 0.725760368,26.160147 1.30814805,26.160147 L1.64853902,26.160147 C2.23092669,26.160147 2.67059836,25.7128433 2.67059836,25.1203464 L2.67059836,12.6896338 L8.56538992,12.6896338 C9.14866403,12.6896338 9.58744927,12.243232 9.58744927,11.6498332 L9.58744927,11.3738757 C9.58744927,10.8327826 9.21248734,10.4089263 8.6744214,10.3403879 C8.63807757,10.3358787 8.60173375,10.3340751 8.56538992,10.3340751 L2.67059836,10.3340751 L2.67059836,3.226817 L14.820074,3.226817 C15.4024617,3.226817 15.8421334,2.77951336 15.8421334,2.18611457 L15.8421334,1.84161862 C15.8421334,1.30052551 15.466285,0.875767409 14.9291055,0.808130769" id="Fill-1"></path>
                    <path d="M41.5001665,23.742092 C41.4602769,23.7366811 41.4212738,23.7339756 41.3813842,23.7339756 L29.2310222,23.7339756 L29.2310222,1.84134808 C29.2310222,1.30025496 28.8551738,0.876398684 28.3171079,0.807860223 C28.280764,0.803351113 28.2444202,0.80154747 28.2080764,0.80154747 L27.8694583,0.80154747 C27.3375974,0.80154747 26.920973,1.18301812 26.8544904,1.73042399 C26.8500582,1.76739868 26.8473989,1.80437338 26.8473989,1.84134808 L26.8473989,25.1200758 C26.8473989,25.7134746 27.2870706,26.1607782 27.8694583,26.1607782 L41.3813842,26.1607782 C41.9637719,26.1607782 42.4034436,25.7134746 42.4034436,25.1200758 L42.4034436,24.774678 C42.4034436,24.2398977 42.0320274,23.8151396 41.5001665,23.742092" id="Fill-3"></path>
                    <path d="M65.5369104,1.53030972 C65.3915351,1.21106478 65.0777371,1.00815486 64.732914,1.00815486 L64.529034,1.00815486 C64.1842108,1.00815486 63.8695265,1.2119666 63.7250376,1.53121154 C57.2806565,15.7078512 53.6808447,23.495083 53.0284286,24.6791751 C52.9539681,24.8135466 52.914965,24.9650526 52.914965,25.120166 C52.914965,25.712663 53.3546367,26.1608684 53.9370243,26.1608684 L54.3438979,26.1608684 C54.6639009,26.1608684 54.9599701,25.9841113 55.1168691,25.7000374 C55.6256827,24.7774737 58.7335231,18.0670172 64.6088131,5.19801923 C66.8027393,9.95873684 68.4834197,13.5984899 69.7811603,16.4004504 L63.5264762,16.4004504 C62.7925082,16.4004504 62.196824,17.0064747 62.196824,17.7531832 C62.196824,18.4998917 62.7925082,19.105916 63.5264762,19.105916 L71.0345791,19.105916 C73.9988172,25.4917166 74.1184859,25.6675719 74.1911735,25.7748887 C74.3569368,26.0156751 74.6281859,26.1608684 74.9180501,26.1608684 L75.3931792,26.1608684 C75.6963399,26.1608684 75.9773397,26.0039514 76.1404437,25.7442267 C76.3035477,25.484502 76.3248221,25.1580425 76.1971755,24.8793796 L65.5369104,1.53030972 Z" id="Fill-5"></path>
                    <path d="M110.792795,1.00806468 C110.580937,1.00806468 110.375284,1.08562136 110.21484,1.22630557 C103.588739,7.02141285 101.07747,9.23809099 100.124552,10.0921163 C100.076685,10.0452216 100.023499,9.99111225 99.9623345,9.92888654 C94.0311992,4.76325091 90.7132736,1.82782075 90.1007472,1.20376002 C89.9340974,1.03421751 89.708943,0.939526215 89.4731513,0.939526215 C88.9457226,0.939526215 88.5290982,1.3182914 88.4581835,1.86028634 C88.4528648,1.8999665 88.4502055,1.93964666 88.4502055,1.97932682 L88.4502055,25.1200758 C88.4502055,25.7134746 88.8898772,26.1607782 89.4731513,26.1607782 L89.7444004,26.1607782 C90.3267881,26.1607782 90.7664597,25.7134746 90.7664597,25.1200758 L90.7664597,4.97157176 C95.1303783,8.76553634 98.0316795,11.3258086 99.4003349,12.5928683 C99.5634389,12.7443744 99.7761832,12.827342 99.9969055,12.827342 L100.133416,12.827342 C100.528766,12.827342 100.548268,12.827342 109.432118,4.99051002 L109.432118,25.1200758 C109.432118,25.7134746 109.870903,26.1607782 110.453291,26.1607782 L110.725426,26.1607782 C111.307814,26.1607782 111.747485,25.7134746 111.747485,25.1200758 L111.747485,1.90988654 C111.747485,1.41117905 111.282994,1.00806468 110.792795,1.00806468" id="Fill-7"></path>
                    <path d="M129.370737,23.734156 L129.370737,3.22672682 L135.070513,3.22672682 C135.271733,3.22672682 135.496888,3.25829059 135.739771,3.31961447 C137.994861,4.27464383 138.257246,5.61204565 138.257246,6.5382167 L138.257246,6.95305476 C138.257246,8.26340192 137.523278,9.29057702 136.014566,10.090493 C134.614885,10.3186539 133.911942,10.4584363 133.911942,11.3052471 L133.911942,11.6506448 C133.911942,12.2431418 134.351614,12.6895436 134.934002,12.6895436 L135.273506,12.6895436 C135.786752,12.6895436 136.440054,12.8717116 137.139451,13.1909566 C139.216368,14.4102197 140.226904,16.0307936 140.226904,18.1437622 C140.226904,18.3205193 140.206516,18.6938736 140.108122,19.4694404 C139.2208,22.3390376 137.260893,23.734156 134.118482,23.734156 L129.370737,23.734156 Z M138.446943,11.2628614 C139.844851,10.1427987 140.574386,8.60699605 140.574386,6.74563573 C140.574386,4.17995253 139.232324,2.26628654 136.640389,1.1922167 L135.621875,0.846818927 C135.530572,0.817058806 135.43661,0.800826012 135.340875,0.800826012 L128.008286,0.800826012 C127.480858,0.800826012 127.053596,1.19582399 126.992432,1.73872075 C126.988,1.77208816 126.987113,1.80725921 126.987113,1.84152844 L126.987113,25.1202562 C126.987113,25.7127531 127.425899,26.1600568 128.008286,26.1600568 L135.206137,26.1600568 C135.384311,26.1600568 135.55096,26.113162 135.691903,26.0292926 C136.411688,25.8940193 137.031306,25.7352987 137.533915,25.556738 C137.564054,25.5468179 137.593306,25.5341924 137.622558,25.5206651 C140.887298,23.9487896 142.542272,21.466074 142.542272,18.1437622 C142.542272,16.5304029 142.029912,14.9828766 141.028241,13.5570963 C140.380257,12.5984596 139.515983,11.8310092 138.446943,11.2628614 L138.446943,11.2628614 Z" id="Fill-9"></path>
                    <path d="M170.806523,23.742092 C170.766634,23.7366811 170.72763,23.7339756 170.687741,23.7339756 L158.537379,23.7339756 L158.537379,12.6893633 L164.433057,12.6893633 C165.016331,12.6893633 165.456003,12.2429614 165.456003,11.6504645 L165.456003,11.3736052 C165.456003,10.8343157 165.080154,10.4095576 164.542975,10.3410191 C164.506631,10.33651 164.469401,10.3338046 164.433057,10.3338046 L158.537379,10.3338046 L158.537379,3.22654646 L168.718969,3.22654646 C169.301357,3.22654646 169.741028,2.77924281 169.741028,2.18674585 L169.741028,1.84134808 C169.741028,1.30025496 169.36518,0.876398684 168.828001,0.807860223 C168.791657,0.803351113 168.755313,0.80154747 168.718969,0.80154747 L157.175815,0.80154747 C156.643954,0.80154747 156.22733,1.18301812 156.160847,1.73042399 C156.156415,1.76739868 156.153756,1.80437338 156.153756,1.84134808 L156.153756,25.1200758 C156.153756,25.7134746 156.593427,26.1607782 157.175815,26.1607782 L170.687741,26.1607782 C171.270128,26.1607782 171.7098,25.7134746 171.7098,25.1200758 L171.7098,24.774678 C171.7098,24.2398977 171.338384,23.8151396 170.806523,23.742092" id="Fill-11"></path>
                    <path d="M200.045842,24.6720507 C199.918195,24.4330679 198.816356,22.0621782 194.362908,12.2837238 C194.378864,12.277411 194.39482,12.2710983 194.411662,12.2656873 C196.886588,11.1375082 198.194079,9.22925314 198.194079,6.74563573 C198.194079,4.17995253 196.852903,2.26718836 194.261854,1.1922167 L193.242454,0.846818927 C193.152038,0.817058806 193.057189,0.800826012 192.962341,0.800826012 L185.628866,0.800826012 C185.097891,0.800826012 184.68038,1.18319848 184.613898,1.73060435 C184.609466,1.76757905 184.606806,1.80455374 184.606806,1.84152844 L184.606806,25.1202562 C184.606806,25.7127531 185.046478,26.1600568 185.628866,26.1600568 L185.969257,26.1600568 C186.551644,26.1600568 186.99043,25.7127531 186.99043,25.1202562 L186.99043,3.22672682 L192.283332,3.22672682 C192.56965,3.22672682 192.899404,3.2627997 193.264615,3.33404362 C195.60569,4.22504362 195.878711,5.62737662 195.878711,6.60765698 L195.878711,6.95305476 C195.878711,8.01810638 195.364579,8.94698289 194.307063,9.78928451 C193.768997,10.0841803 193.070486,10.2943048 192.230146,10.4115416 C191.951805,10.4503199 191.708036,10.6216661 191.573298,10.8714707 C191.438559,11.123079 191.427922,11.4233857 191.545818,11.6831104 C196.935342,23.5664171 197.840392,25.3962137 198.051363,25.738906 C198.213581,26.0013361 198.49724,26.1600568 198.802174,26.1600568 L199.140792,26.1600568 C199.724066,26.1600568 200.163737,25.7127531 200.163737,25.1202562 C200.163737,24.9696519 200.116756,24.8037167 200.045842,24.6720507" id="Fill-13"></path>
                </g>
            </g>
        </g>
    </g>
</svg>