<?xml version="1.0" encoding="UTF-8" standalone="no"?>
<svg width="163px" height="254px" viewBox="0 0 163 254" version="1.1" xmlns="http://www.w3.org/2000/svg" xmlns:xlink="http://www.w3.org/1999/xlink">
    <!-- Generator: Sketch 3.8.3 (29802) - http://www.bohemiancoding.com/sketch -->
    <title>vertical</title>
    <desc>Created with Sketch.</desc>
    <defs></defs>
    <g id="logos" stroke="none" stroke-width="1" fill="none" fill-rule="evenodd">
        <g id="vertical" transform="translate(-169.000000, -123.000000)">
            <g transform="translate(169.000000, 123.000000)">
                <path d="M62.9,225.5 L61.7,225.5 C61.4,225.5 61.1,225.7 61,226.1 L57.9,243.6 C57.9,243.8 57.9,244 58.1,244.2 C58.2,244.4 58.4,244.4 58.6,244.4 L59.8,244.4 C60.1,244.4 60.4,244.2 60.5,243.8 L63.6,226.3 C63.6,226.1 63.6,225.9 63.4,225.7 C63.3,225.6 63.2,225.5 62.9,225.5" id="Fill-1" fill="#000000"></path>
                <path d="M64.1,215.9 C63.1,215.9 62.1,216.7 61.9,217.8 C61.8,218.3 61.9,218.8 62.3,219.2 C62.6,219.6 63.1,219.8 63.6,219.8 C64.6,219.8 65.6,219 65.8,217.9 C65.9,217.4 65.8,216.9 65.4,216.5 C65.1,216.1 64.6,215.9 64.1,215.9" id="Fill-3" fill="#000000"></path>
                <path d="M127.3,225.5 L126.1,225.5 C125.8,225.5 125.5,225.7 125.4,226.1 L123.5,236.8 C123,239.6 120.3,241.9 117.5,241.9 C116.3,241.9 115.2,241.4 114.5,240.6 C113.8,239.7 113.5,238.5 113.7,237.2 L115.6,226.3 C115.6,226.1 115.6,225.9 115.4,225.7 C115.3,225.5 115.1,225.5 114.9,225.5 L113.7,225.5 C113.4,225.5 113.1,225.7 113,226.1 L111.1,236.8 C110.7,238.8 111.2,240.8 112.4,242.2 C113.6,243.6 115.4,244.4 117.4,244.4 C121.4,244.4 125.2,241.2 125.9,237.2 L127.8,226.3 C127.8,226.1 127.8,225.9 127.6,225.7 C127.7,225.5 127.5,225.5 127.3,225.5" id="Fill-5" fill="#000000"></path>
                <path d="M44.5,225.5 C40.4,225.6 36.7,228.8 36,232.7 L34.1,243.7 C34.1,243.9 34.1,244.1 34.2,244.2 C34.3,244.4 34.5,244.4 34.7,244.4 L36,244.4 C36.3,244.4 36.6,244.2 36.7,243.8 L38.6,233.1 C39.1,230.4 41.6,228.2 44.4,228 C44.7,228 45,227.8 45,227.5 L45.2,226.2 C45.2,226 45.2,225.8 45,225.6 C44.9,225.5 44.7,225.5 44.5,225.5" id="Fill-7" fill="#000000"></path>
                <path d="M88.5,241.8 C86.7,241.8 85.2,241.1 84.2,239.9 C83.1,238.6 82.7,237 83.1,235.1 C83.8,231.2 87.5,228 91.5,228 C93.3,228 94.8,228.7 95.8,229.9 C96.9,231.2 97.3,232.9 96.9,234.7 C96.2,238.6 92.4,241.8 88.5,241.8 M91.4,225.5 C89,225.5 86.5,226.4 84.5,228.1 C84.2,228.4 83.8,228.3 83.6,228.2 C83.3,228 83.2,227.8 83.2,227.4 L83.4,226.3 C83.4,226.1 83.4,225.9 83.2,225.7 C83.1,225.5 82.9,225.4 82.7,225.4 L81.5,225.4 C81.2,225.4 80.9,225.6 80.8,226 L76.1,252.9 C76.1,253.1 76.1,253.3 76.3,253.5 C76.4,253.7 76.6,253.8 76.8,253.8 L78,253.8 C78.3,253.8 78.6,253.6 78.7,253.2 L80.7,241.9 C80.8,241.6 81,241.3 81.3,241.3 C81.6,241.2 81.9,241.3 82.2,241.6 C83.7,243.4 86,244.4 88.5,244.4 C93.6,244.4 98.5,240.3 99.4,235.2 C99.9,232.6 99.3,230.2 97.7,228.3 C96.2,226.5 93.9,225.5 91.4,225.5" id="Fill-9" fill="#000000"></path>
                <path d="M160,234.7 C159.3,238.6 155.6,241.8 151.6,241.8 C149.8,241.8 148.3,241.1 147.3,239.9 C146.2,238.6 145.8,236.9 146.2,235.1 C146.9,231.2 150.6,228 154.6,228 C156.4,228 157.9,228.7 158.9,229.9 C159.9,231.2 160.3,232.9 160,234.7 M160.8,228.3 C159.3,226.5 157,225.5 154.5,225.5 C152.1,225.5 149.6,226.4 147.6,228.1 C147.3,228.4 146.9,228.3 146.7,228.2 C146.4,228 146.3,227.7 146.3,227.4 L146.5,226.3 C146.5,226.1 146.5,225.9 146.3,225.7 C146.2,225.5 146,225.4 145.8,225.4 L144.6,225.4 C144.3,225.4 144,225.6 143.9,226 L139.2,252.9 C139.2,253.1 139.2,253.3 139.4,253.5 C139.5,253.7 139.7,253.8 139.9,253.8 L141.1,253.8 C141.4,253.8 141.7,253.6 141.8,253.2 L143.8,241.9 C143.9,241.6 144.1,241.3 144.4,241.3 C144.7,241.2 145,241.3 145.3,241.6 C146.8,243.4 149.1,244.4 151.6,244.4 C156.7,244.4 161.6,240.3 162.5,235.2 C163,232.6 162.4,230.1 160.8,228.3" id="Fill-12" fill="#000000"></path>
                <path d="M12,228.2 C13.8,228.2 15.3,228.9 16.3,230.1 C17.4,231.4 17.8,233 17.4,234.9 C16.7,238.8 13,242 9,242 C7.2,242 5.7,241.3 4.7,240.1 C3.7,238.8 3.2,237.1 3.6,235.3 C4.4,231.4 8.1,228.2 12,228.2 M23.7,216.3 L22.5,216.3 C22.2,216.3 21.9,216.5 21.8,216.9 L19.8,228.2 C19.7,228.5 19.5,228.8 19.2,228.9 C18.9,229 18.5,228.9 18.3,228.6 C16.8,226.8 14.5,225.8 12,225.8 C6.9,225.8 2,229.9 1.1,235 C0.6,237.6 1.2,240 2.8,241.9 C4.3,243.7 6.6,244.7 9.1,244.7 C11.5,244.7 13.9,243.8 15.9,242.1 C16.2,241.8 16.6,241.9 16.8,242 C17.1,242.2 17.2,242.5 17.2,242.8 L17,243.8 C17,244 17,244.2 17.2,244.4 C17.3,244.6 17.5,244.7 17.7,244.7 L18.9,244.7 C19.2,244.7 19.5,244.5 19.6,244.1 L24.4,217.2 C24.4,217 24.4,216.8 24.2,216.6 C24.1,216.3 23.9,216.3 23.7,216.3" id="Fill-14" fill="#000000"></path>
                <path d="M153.7,99.5 C150.1,92.5 145.8,85.6 141.2,78.7 C126.5,56.5 112.7,30.8 100.3,2.2 C99.9,1.3 99.1,0.8 98.2,0.8 L91.2,0.8 L88.9,0.8 L83.5,0.8 L76.5,0.8 L74.2,0.8 C73.3,0.8 72.4,1.4 72.1,2.2 C59.7,30.8 45.9,56.5 31.2,78.7 C25.1,87.8 19.5,97 15.5,106.5 C13.9,110.1 12.7,113.7 11.7,117.6 C11.7,117.6 11.7,117.6 11.7,117.7 C11.4,118.9 11.2,120.1 10.9,121.3 C10.8,121.8 10.7,122.2 10.6,122.7 C10.6,122.9 10.6,123 10.5,123.2 C10.2,125.1 10,127.1 9.8,129.1 C9.8,129.6 9.7,130.1 9.7,130.6 C9.7,131.3 9.6,131.9 9.6,132.6 L9.6,133.6 C9.6,172.9 43.9,204.8 86.3,204.8 C128.6,204.8 163,172.9 163,133.6 C163,121.2 159.6,109.6 153.7,99.5 Z M133.3,150.4 C125.2,175.3 102.9,191.4 76.4,191.6 C49.9,191.4 27.6,175.3 19.5,150.4 C11,124.2 23,102.8 37.2,81.3 C50.4,61.5 62.8,38.8 74.1,14 C74.5,13.1 75.4,12.5 76.4,12.5 C77.4,12.5 78.3,13.1 78.7,14 C90,38.8 102.4,61.5 115.6,81.3 C129.8,102.8 141.8,124.2 133.3,150.4 Z" id="Combined-Shape" fill="#060000"></path>
            </g>
        </g>
    </g>
</svg>